<svg id="bcb5bbf0-7a2c-468e-9169-def856f1bf3d" data-name="Layer 1" xmlns="http://www.w3.org/2000/svg" width="898.23872" height="566.34096" viewBox="0 0 898.23872 566.34096"><title>optimize_image</title><path d="M790.53175,646.07139H358.76435C244.33221,620.72986,150.88064,533.44518,150.88064,402.9176a271.80843,271.80843,0,0,1,6.36661-58.71408l348.02353-56.05926,268.4786-43.24289a480.15821,480.15821,0,0,1,54.91915,41.8614L571.683,384.79158,450.45154,431.03882l136.14515-33.83866L869.17334,326.968a481.98867,481.98867,0,0,1,46.655,61.39385L830.3746,452.25245l96.54745-45.69794q.61283,1.05685,1.22041,2.1171C988.71817,514.37707,912.36385,646.07139,790.53175,646.07139Z" transform="translate(-150.88064 -166.82952)" fill="#f2f2f2"/><path d="M721.535,215.23227c-65.35529,13.49881-145.70746,30.5596-228.32332,48.2945-119.45055,25.64945-243.62812,52.722-334.03368,72.51254l.06-.2344a80.79243,80.79243,0,0,1,23.08127-38.66247A478.7381,478.7381,0,0,1,429.78716,173.70378h.00833a483.29525,483.29525,0,0,1,81.40912-6.87426A478.25725,478.25725,0,0,1,721.535,215.23227Z" transform="translate(-150.88064 -166.82952)" fill="#f2f2f2"/><path d="M616.11936,215.67048v442h433v-442Zm393,312h-352v-274h352Z" transform="translate(-150.88064 -166.82952)" fill="#3f3d56"/><path d="M855.49236,330.8973c-10.67463-18.03681-31.79353-18.87741-31.79353-18.87741s-20.57916-2.63164-33.78057,24.83865c-12.30476,25.60458-29.2869,50.32632-2.734,56.32016l4.79622-14.928,2.97028,16.03938a103.89288,103.89288,0,0,0,11.361.19417c28.436-.91808,55.517.26861,54.64508-9.93543C859.79773,370.984,865.76349,348.25233,855.49236,330.8973Z" transform="translate(-150.88064 -166.82952)" fill="#2f2e41"/><path d="M782.61936,502.17048l-36,25s-21,22-6,22,21-19,21-19l46-20Z" transform="translate(-150.88064 -166.82952)" fill="#ffb8b8"/><path d="M797.11936,404.67048s-31.5,97.5-21.5,102.5,32,8,32,8Z" transform="translate(-150.88064 -166.82952)" fill="#d0cde1"/><path d="M797.11936,404.67048s-31.5,97.5-21.5,102.5,32,8,32,8Z" transform="translate(-150.88064 -166.82952)" opacity="0.1"/><path d="M896.14939,527.67048h-70.91l50.38-25.5a32.12388,32.12388,0,0,1,3.19,2.36A63.96483,63.96483,0,0,1,896.14939,527.67048Z" transform="translate(-150.88064 -166.82952)" fill="#2f2e41"/><circle cx="666.23872" cy="186.84096" r="26" fill="#ffb8b8"/><path d="M816.61936,375.17048s6,19,0,26,33-10,33-10-14-20-10-29Z" transform="translate(-150.88064 -166.82952)" fill="#ffb8b8"/><path d="M874.21934,461.98048l-2.1,13.69s1.06,3.11,2.35,7.64c1.68005,5.91,3.75,14.24,4.34,21.22.61,7.08-.31,12.78-4.69,13.14-6.28.52-9.55,4.33-12.81,10h-72.34c.19-3.12.42-6.36.69-9.69q.225-3,.5-6.08c.2-2.36,7.28589-46.68955,1.96-56.23-10.997-19.69937,3-31,3-31s2-15,2-20c0-3.92005,15.36-8.45,22-10.23.43-.11.81-.22,1.16-.3,1.15-.3,1.84-.47,1.84-.47l5.25-2.15s14.75-2.85,15.75-4.85a5.08121,5.08121,0,0,1,2.56-1.82c2.11-.9,4.8-1.54,5.44-2.18a25.489,25.489,0,0,0,2.47-3.36,13.36526,13.36526,0,0,1,7.36005-4.3c10.74-2.71,26.17,2.66,26.17,2.66l-5.4,35.25Z" transform="translate(-150.88064 -166.82952)" fill="#d0cde1"/><path d="M905.61936,440.17048l-36,25s-21,22-6,22,21-19,21-19l46-20Z" transform="translate(-150.88064 -166.82952)" fill="#ffb8b8"/><path d="M843.773,329.1586l-20.86446-10.929-13.09039,2.03126a23.402,23.402,0,0,0-19.23593,17.95751l-2.44782,10.81118,14.83941-.57075,4.14557-9.673v9.51355l6.84725-.26338,3.9742-15.39994,2.48383,16.39352,24.34192-.49679Z" transform="translate(-150.88064 -166.82952)" fill="#2f2e41"/><path d="M880.11936,379.67048l7-2s71,29,69,54,1,25-11,26-47-11-46-13,8-12,8-12l-27-21Z" transform="translate(-150.88064 -166.82952)" fill="#d0cde1"/><circle cx="692.23872" cy="186.84096" r="4" fill="#ffb8b8"/><path d="M150.94071,417.67054V645.67036H374.298V417.67054Zm202.208,160.941H171.5742V437.27235H353.14872Z" transform="translate(-150.88064 -166.82952)" fill="#3f3d56"/><path d="M250.82063,477.10879c5.50636-9.30405,16.40027-9.73766,16.40027-9.73766s10.61549-1.3575,17.42526,12.81268c6.34724,13.20779,15.10726,25.96017,1.41029,29.052l-2.47407-7.70041-1.53218,8.2737a53.5936,53.5936,0,0,1-5.86043.10016c-14.66834-.47358-28.63773.13855-28.18794-5.12507C248.59976,497.787,245.5224,486.06115,250.82063,477.10879Z" transform="translate(-150.88064 -166.82952)" fill="#2f2e41"/><path d="M288.4112,565.45778l18.57012,12.89592s10.83257,11.34841,3.095,11.34841-10.83257-9.8009-10.83257-9.8009l-23.72849-10.31673Z" transform="translate(-150.88064 -166.82952)" fill="#ffb8b8"/><path d="M280.93157,515.1637s16.24885,50.29408,11.09048,52.87327-16.50677,4.12669-16.50677,4.12669Z" transform="translate(-150.88064 -166.82952)" fill="#d0cde1"/><path d="M280.93157,515.1637s16.24885,50.29408,11.09048,52.87327-16.50677,4.12669-16.50677,4.12669Z" transform="translate(-150.88064 -166.82952)" opacity="0.1"/><path d="M229.84824,578.61162h36.578l-25.98786-13.15384a16.57048,16.57048,0,0,0-1.64552,1.21737A32.99537,32.99537,0,0,0,229.84824,578.61162Z" transform="translate(-150.88064 -166.82952)" fill="#2f2e41"/><circle cx="119.73419" cy="322.02651" r="13.41176" fill="#ffb8b8"/><path d="M270.87275,499.94652s-3.095,9.8009,0,13.41175-17.02261-5.15836-17.02261-5.15836,7.22171-10.31674,5.15836-14.95927Z" transform="translate(-150.88064 -166.82952)" fill="#ffb8b8"/><path d="M241.16057,544.7263l1.08324,7.06181s-.54679,1.60425-1.2122,3.941a62.97606,62.97606,0,0,0-2.23875,10.946c-.31465,3.65213.15991,6.59241,2.41928,6.7781,3.23947.26822,4.92623,2.23355,6.60786,5.15837h37.31565c-.098-1.60941-.21668-3.28071-.35593-4.99846q-.11608-1.5475-.25792-3.13629c-.10317-1.21737-4.24686-24.09915-1.01105-29.00549,6.40732-9.71521-1.54751-15.99094-1.54751-15.99094s-1.03167-7.73755-1.03167-10.31674c0-2.0221-7.92325-4.35882-11.34841-5.277-.22181-.05673-.41783-.11347-.59836-.15474-.59322-.15475-.94915-.24243-.94915-.24243l-2.70815-1.10906s-7.60859-1.47013-8.12442-2.5018a2.62114,2.62114,0,0,0-1.32055-.93883,18.689,18.689,0,0,1-2.80615-1.12452,13.14739,13.14739,0,0,1-1.2741-1.7332,6.89422,6.89422,0,0,0-3.79658-2.21812c-5.54008-1.3979-13.49944,1.37214-13.49944,1.37214l2.78553,18.18325Z" transform="translate(-150.88064 -166.82952)" fill="#d0cde1"/><path d="M224.96328,533.47591l18.57012,12.89591s10.83257,11.34841,3.095,11.34841-10.83257-9.8009-10.83257-9.8009L212.06736,537.6026Z" transform="translate(-150.88064 -166.82952)" fill="#ffb8b8"/><path d="M256.86592,476.2119l10.76265-5.63759,6.7525,1.0478a12.07162,12.07162,0,0,1,9.9226,9.26314l1.26268,5.57681-7.65471-.29442L275.7732,481.178v4.90744l-3.53206-.13586-2.05-7.94385-1.28125,8.45638-12.55646-.25626Z" transform="translate(-150.88064 -166.82952)" fill="#2f2e41"/><path d="M238.11712,502.26778l-3.61086-1.03167s-36.62441,14.95927-35.59274,27.85518-.51583,12.89592,5.67421,13.41176,24.24432-5.6742,23.72849-6.70588-4.1267-6.19-4.1267-6.19l13.9276-10.83257Z" transform="translate(-150.88064 -166.82952)" fill="#d0cde1"/><circle cx="106.32244" cy="322.02651" r="2.06335" fill="#ffb8b8"/><path d="M751.71464,531.908c-2.98743,5.27014-7.66236,11.65246-12.11963,15.35632l8.90155-1.68128a229.05519,229.05519,0,0,1-434.15064,49.68537l9.05066-.38526c-5.18231-2.59417-11.18512-7.74737-15.29181-12.20086.20954,6.05365-.44012,13.93823-2.3042,19.42566l6.69635-6.07434a231.055,231.055,0,0,0,437.97321-50.126l7.90222,4.39435C755.31022,545.38166,752.886,537.8509,751.71464,531.908Z" transform="translate(-150.88064 -166.82952)" fill="#6c63ff"/><path d="M961.92954,530.25072c-.20345-.33244-5.00048-8.3422-6.66355-24.97468-1.52542-15.25941-.54455-40.98035,12.79468-76.859,25.27076-67.9696-5.82379-122.81121-6.14152-123.35749l1.53408-.89c.08052.13852,8.10413,14.121,12.844,36.38592a158.7396,158.7396,0,0,1-6.57438,88.47969c-25.22747,67.85359-6.47222,99.9749-6.28,100.29176Z" transform="translate(-150.88064 -166.82952)" fill="#3f3d56"/><circle cx="801.16742" cy="122.7144" r="11.52464" fill="#6c63ff"/><circle cx="837.51437" cy="165.26693" r="11.52464" fill="#3f3d56"/><circle cx="812.69206" cy="193.63529" r="11.52464" fill="#6c63ff"/><circle cx="842.83344" cy="217.57109" r="11.52464" fill="#6c63ff"/><circle cx="803.82695" cy="254.80455" r="11.52464" fill="#3f3d56"/><path d="M968.89177,530.67493s-11.52464-28.36835,23.04929-49.64462Z" transform="translate(-150.88064 -166.82952)" fill="#3f3d56"/><path d="M954.71824,530.16034s-5.245-30.16738-45.84015-29.90882Z" transform="translate(-150.88064 -166.82952)" fill="#3f3d56"/><path d="M200.47651,582.60943c.09738-.15912,2.39342-3.99291,3.18944-11.95385.73012-7.30374.26064-19.61478-6.124-36.78765-12.09556-32.53287,2.78749-58.78218,2.93957-59.04365l-.73427-.426a65.15969,65.15969,0,0,0-6.14765,17.41569,75.979,75.979,0,0,0,3.14675,42.34979c12.07484,32.47734,3.09786,47.85184,3.00587,48.0035Z" transform="translate(-150.88064 -166.82952)" fill="#3f3d56"/><circle cx="54.32553" cy="300.56836" r="5.51614" fill="#6c63ff"/><circle cx="36.92848" cy="320.93564" r="5.51614" fill="#3f3d56"/><circle cx="48.80939" cy="334.51383" r="5.51614" fill="#6c63ff"/><circle cx="34.38257" cy="345.97042" r="5.51614" fill="#6c63ff"/><circle cx="53.05258" cy="363.79179" r="5.51614" fill="#3f3d56"/><path d="M197.14412,582.81247s5.51614-13.57819-11.03227-23.76183Z" transform="translate(-150.88064 -166.82952)" fill="#3f3d56"/><path d="M203.92812,582.56617s2.51044-14.43928,21.94086-14.31552Z" transform="translate(-150.88064 -166.82952)" fill="#3f3d56"/></svg>